<?xml version="1.0" standalone="no"?>
<!DOCTYPE svg PUBLIC "-//W3C//DTD SVG 20010904//EN"
 "http://www.w3.org/TR/2001/REC-SVG-20010904/DTD/svg10.dtd">
<svg version="1.0" xmlns="http://www.w3.org/2000/svg"
 width="64.000000pt" height="64.000000pt" viewBox="0 0 64.000000 64.000000"
 preserveAspectRatio="xMidYMid meet">

<g transform="translate(0.000000,64.000000) scale(0.100000,-0.100000)"
fill="#742ff6" stroke="none">
<path d="M264 535 c-17 -8 -44 -29 -59 -47 -16 -18 -35 -34 -44 -34 -9 -1 -24
-2 -34 -3 -31 -2 -67 -47 -67 -84 0 -19 -7 -40 -16 -48 -21 -17 -44 -63 -44
-88 0 -41 32 -101 65 -121 26 -16 50 -20 124 -20 l92 0 -3 68 c-3 65 -4 67
-30 70 -16 2 -28 6 -28 10 0 17 87 132 100 132 13 0 100 -115 100 -132 0 -4
-12 -8 -27 -10 -27 -3 -28 -5 -31 -70 l-3 -68 88 0 c70 0 95 4 120 20 37 22
73 86 73 127 0 50 -41 116 -87 141 -25 13 -43 31 -43 40 0 30 -49 91 -90 112
-45 23 -110 25 -156 5z"/>
</g>
</svg>
