<?xml version="1.0" standalone="no"?>
<!DOCTYPE svg PUBLIC "-//W3C//DTD SVG 20010904//EN"
 "http://www.w3.org/TR/2001/REC-SVG-20010904/DTD/svg10.dtd">
<svg version="1.0" xmlns="http://www.w3.org/2000/svg"
 width="64.000000pt" height="64.000000pt" viewBox="0 0 64.000000 64.000000"
 preserveAspectRatio="xMidYMid meet">

<g transform="translate(0.000000,64.000000) scale(0.100000,-0.100000)"
fill="#000000" stroke="none">
<path d="M226 625 c-42 -15 -94 -60 -83 -71 4 -4 20 4 35 19 80 77 223 57 281
-40 16 -26 36 -46 51 -49 99 -26 139 -111 90 -191 -11 -18 -15 -33 -10 -33 16
0 50 62 50 92 0 65 -51 133 -107 144 -23 4 -38 15 -48 34 -46 88 -160 130
-259 95z"/>
<path d="M98 484 c-9 -33 -20 -50 -40 -60 -33 -17 -58 -62 -58 -105 0 -48 56
-99 109 -99 39 0 41 -2 41 -30 0 -29 -13 -40 -25 -20 -11 18 -53 11 -60 -10
-13 -41 19 -52 71 -25 21 10 30 24 34 47 4 27 10 34 31 36 20 2 28 -2 34 -20
l8 -23 4 23 c3 17 11 22 34 22 28 0 29 -1 29 -51 0 -31 4 -48 10 -44 6 3 10
26 10 51 0 44 1 45 28 42 26 -3 27 -5 30 -70 3 -66 4 -68 37 -84 45 -21 70
-15 70 16 0 20 -6 26 -27 28 -16 2 -28 -1 -28 -7 0 -6 -7 -11 -15 -11 -12 0
-15 14 -15 66 l0 65 28 -3 c22 -2 28 -9 32 -36 5 -33 42 -62 80 -62 20 0 32
23 24 45 -7 17 -49 20 -59 5 -12 -20 -25 -9 -25 20 0 25 4 30 24 30 32 0 57
10 51 20 -3 5 -20 4 -38 -1 -46 -13 -407 -11 -446 2 -79 28 -80 133 -2 174 20
10 30 24 34 47 3 18 8 41 12 51 4 10 3 17 -4 17 -6 0 -17 -21 -23 -46z m10
-335 c-2 -6 -8 -10 -13 -10 -5 0 -11 4 -13 10 -2 6 4 11 13 11 9 0 15 -5 13
-11z m450 0 c-2 -6 -8 -10 -13 -10 -5 0 -11 4 -13 10 -2 6 4 11 13 11 9 0 15
-5 13 -11z m-80 -70 c-2 -6 -8 -10 -13 -10 -5 0 -11 4 -13 10 -2 6 4 11 13 11
9 0 15 -5 13 -11z"/>
<path d="M230 120 c0 -20 -5 -30 -15 -30 -8 0 -15 5 -15 11 0 6 -12 9 -27 7
-22 -2 -28 -8 -28 -28 0 -20 6 -26 28 -28 15 -2 27 1 27 7 0 5 10 11 23 13 18
2 23 10 25 41 2 21 -1 37 -7 37 -6 0 -11 -13 -11 -30z m-42 -41 c-2 -6 -8 -10
-13 -10 -5 0 -11 4 -13 10 -2 6 4 11 13 11 9 0 15 -5 13 -11z"/>
<path d="M301 66 c-19 -35 -11 -61 19 -61 20 0 26 6 28 28 2 15 -1 27 -7 27
-6 0 -11 7 -11 15 0 23 -15 18 -29 -9z m29 -31 c0 -8 -4 -15 -9 -15 -13 0 -22
16 -14 24 11 11 23 6 23 -9z"/>
</g>
</svg>
