<?xml version="1.0" standalone="no"?>
<!DOCTYPE svg PUBLIC "-//W3C//DTD SVG 20010904//EN"
 "http://www.w3.org/TR/2001/REC-SVG-20010904/DTD/svg10.dtd">
<svg version="1.0" xmlns="http://www.w3.org/2000/svg"
 width="64.000000pt" height="64.000000pt" viewBox="0 0 64.000000 64.000000"
 preserveAspectRatio="xMidYMid meet">

<g transform="translate(0.000000,64.000000) scale(0.100000,-0.100000)"
fill="#ffffff" stroke="none">
<path d="M12 588 c-17 -17 -17 -409 0 -426 8 -8 48 -12 115 -12 57 0 103 -4
103 -9 0 -32 -21 -59 -50 -65 -19 -3 -30 -11 -28 -18 7 -19 329 -19 336 0 2 7
-9 15 -28 18 -29 6 -50 33 -50 65 0 5 46 9 103 9 67 0 107 4 115 12 17 17 17
409 0 426 -17 17 -599 17 -616 0z m588 -178 l0 -150 -280 0 -280 0 0 150 0
150 280 0 280 0 0 -150z m0 -200 c0 -20 -7 -20 -280 -20 -273 0 -280 0 -280
20 0 20 7 20 280 20 273 0 280 0 280 -20z m-223 -95 l11 -35 -68 0 -68 0 11
35 c10 33 12 35 57 35 45 0 47 -2 57 -35z"/>
<path d="M180 445 l-34 -35 37 -37 c29 -29 39 -35 49 -25 9 9 7 17 -12 37
l-23 25 22 24 c21 22 22 46 2 46 -4 0 -22 -16 -41 -35z"/>
<path d="M306 421 c-26 -54 -28 -90 -5 -75 13 8 59 100 59 119 0 34 -28 11
-54 -44z"/>
<path d="M405 469 c-4 -6 3 -21 16 -35 l22 -24 -23 -25 c-19 -20 -21 -28 -12
-37 10 -10 20 -4 49 25 l37 37 -34 35 c-36 37 -45 41 -55 24z"/>
</g>
</svg>
