<?xml version="1.0" standalone="no"?>
<!DOCTYPE svg PUBLIC "-//W3C//DTD SVG 20010904//EN"
 "http://www.w3.org/TR/2001/REC-SVG-20010904/DTD/svg10.dtd">
<svg version="1.0" xmlns="http://www.w3.org/2000/svg"
 width="64.000000pt" height="64.000000pt" viewBox="0 0 64.000000 64.000000"
 preserveAspectRatio="xMidYMid meet">

<g transform="translate(0.000000,64.000000) scale(0.100000,-0.100000)"
fill="#ffffff" stroke="none">
<path d="M387 619 c-5 -17 -11 -20 -35 -15 -32 8 -58 -13 -48 -39 5 -13 -14
-15 -137 -15 -98 0 -147 -4 -155 -12 -17 -17 -17 -409 0 -426 15 -15 132 -17
123 -2 -3 6 -31 10 -61 10 -53 0 -54 0 -54 30 l0 30 300 0 300 0 0 -30 0 -30
-224 0 c-139 0 -227 -4 -231 -10 -4 -6 12 -10 39 -10 42 0 46 -2 46 -24 0 -37
-10 -56 -31 -56 -10 0 -19 -4 -19 -10 0 -6 47 -10 120 -10 73 0 120 4 120 10
0 6 -9 10 -19 10 -21 0 -31 19 -31 56 0 24 0 24 113 24 75 0 117 4 125 12 17
17 17 409 0 426 -7 7 -32 12 -56 12 -34 0 -43 3 -39 14 8 22 -24 45 -54 39
-21 -4 -27 0 -32 16 -7 29 -53 29 -60 0z m43 -14 c0 -16 43 -31 59 -20 17 10
34 -5 22 -19 -15 -17 -2 -53 20 -59 22 -6 26 -27 4 -27 -20 0 -38 -36 -30 -61
6 -18 4 -20 -14 -14 -25 8 -61 -10 -61 -30 0 -8 -4 -15 -10 -15 -5 0 -10 7
-10 15 0 18 -37 38 -57 31 -21 -8 -36 3 -25 17 13 16 -3 57 -23 57 -8 0 -15 7
-15 15 0 8 7 15 15 15 22 0 39 38 24 56 -12 15 -8 17 33 14 18 -1 31 6 40 19
15 25 28 27 28 6z m-134 -82 c-4 -5 -62 -10 -129 -13 l-122 -5 -3 -152 c-4
-208 -22 -203 -22 5 0 87 3 162 7 165 3 4 67 7 141 7 75 0 132 -3 128 -7z
m322 -160 c1 -104 -1 -163 -7 -163 -7 0 -12 59 -13 152 l-3 151 -35 13 -35 13
45 -2 45 -2 3 -162z m-344 112 c3 -8 12 -15 20 -15 18 0 27 -25 13 -39 -16
-16 21 -55 39 -40 17 14 44 4 44 -16 0 -10 10 -15 30 -15 19 0 30 5 30 14 0
21 17 28 39 17 26 -14 60 21 42 43 -13 16 -7 36 11 36 6 0 17 8 24 18 11 14
13 -6 14 -130 l0 -148 -260 0 -260 0 0 145 0 145 104 0 c83 0 105 -3 110 -15z
m96 -392 c0 -10 3 -28 6 -40 6 -22 4 -23 -56 -23 -60 0 -62 1 -56 23 3 12 6
30 6 40 0 14 9 17 50 17 41 0 50 -3 50 -17z"/>
<path d="M401 563 c-9 -4 -3 -10 19 -17 41 -14 55 -35 46 -69 -4 -18 -15 -29
-33 -33 -39 -10 -58 7 -61 55 -4 49 -22 45 -22 -4 0 -39 31 -75 66 -75 34 0
74 37 74 70 0 47 -50 88 -89 73z"/>
<path d="M390 515 c-18 -21 -3 -55 24 -55 33 0 50 23 36 49 -12 24 -42 27 -60
6z m46 -16 c7 -12 -15 -31 -28 -23 -4 3 -8 12 -8 20 0 17 26 19 36 3z"/>
<path d="M170 434 c0 -12 -6 -15 -24 -10 -29 7 -50 -15 -41 -44 5 -14 2 -20
-9 -20 -21 0 -21 -46 0 -54 10 -4 14 -12 10 -22 -9 -23 13 -46 35 -39 12 4 21
1 25 -9 8 -20 43 -21 50 -1 4 9 13 13 24 10 21 -7 44 19 36 40 -3 9 3 19 14
25 26 14 26 36 0 50 -11 6 -17 16 -14 25 8 21 -14 45 -33 38 -9 -4 -19 1 -25
10 -12 22 -48 22 -48 1z m40 -24 c11 -11 26 -17 35 -14 11 4 13 2 9 -9 -3 -9
3 -24 13 -34 17 -17 17 -19 0 -36 -11 -11 -16 -26 -12 -37 5 -15 2 -17 -16
-13 -15 4 -26 0 -35 -12 -14 -18 -14 -18 -28 0 -8 12 -20 16 -34 13 -19 -5
-21 -3 -16 16 3 14 -1 27 -10 35 -14 12 -14 15 0 28 9 9 13 24 11 35 -3 10 0
18 6 17 30 -4 47 2 47 16 0 20 6 19 30 -5z"/>
<path d="M150 360 c-14 -26 -5 -57 21 -71 43 -23 92 44 57 79 -20 20 -66 15
-78 -8z m68 -26 c4 -27 -26 -40 -46 -20 -21 20 -8 48 20 44 14 -2 24 -11 26
-24z"/>
<path d="M295 150 c-4 -6 7 -10 25 -10 18 0 29 4 25 10 -3 6 -15 10 -25 10
-10 0 -22 -4 -25 -10z"/>
</g>
</svg>
