<?xml version="1.0" standalone="no"?>
<!DOCTYPE svg PUBLIC "-//W3C//DTD SVG 20010904//EN"
 "http://www.w3.org/TR/2001/REC-SVG-20010904/DTD/svg10.dtd">
<svg version="1.0" xmlns="http://www.w3.org/2000/svg"
 width="64.000000pt" height="64.000000pt" viewBox="0 0 64.000000 64.000000"
 preserveAspectRatio="xMidYMid meet">

<g transform="translate(0.000000,64.000000) scale(0.100000,-0.100000)"
fill="#000000" stroke="none">
<path d="M120 633 c0 -23 22 -83 30 -83 12 0 12 6 -1 53 -5 20 -14 37 -19 37
-6 0 -10 -3 -10 -7z"/>
<path d="M440 624 c0 -11 -5 -26 -10 -34 -9 -13 -13 -11 -29 9 -17 23 -19 23
-42 7 -13 -9 -38 -16 -56 -16 -71 0 -142 -54 -169 -128 -36 -100 -36 -101 -56
-89 -24 16 -70 -25 -50 -45 17 -17 15 -25 -8 -31 -28 -7 -28 -57 0 -64 23 -6
25 -14 8 -31 -10 -10 -7 -17 10 -34 18 -19 25 -21 41 -11 16 10 20 9 24 -8 8
-28 63 -27 70 3 5 17 9 19 20 9 8 -6 22 -9 31 -5 12 5 16 0 16 -19 0 -14 5
-29 10 -32 6 -3 10 -23 10 -44 0 -20 5 -42 12 -49 16 -16 83 -15 97 2 12 14
30 86 38 154 3 28 12 47 26 57 23 16 17 31 -8 21 -19 -7 -45 -65 -45 -101 0
-24 -3 -25 -59 -25 l-58 0 -6 46 c-4 38 -13 54 -47 88 -71 68 -87 133 -51 211
23 51 71 92 118 101 31 6 39 3 55 -16 22 -27 16 -39 -17 -33 -26 5 -28 2 -39
-50 -6 -24 -3 -28 24 -33 35 -8 36 -11 10 -39 -19 -20 -19 -21 5 -50 21 -26
26 -29 44 -17 32 19 41 15 35 -17 -6 -26 -3 -29 30 -35 44 -8 56 -2 56 30 0
29 15 31 32 4 16 -25 27 -25 57 1 21 17 22 23 12 45 -15 34 -15 34 18 34 24 0
29 5 35 31 9 46 9 47 -24 54 -35 8 -38 16 -10 33 26 16 25 25 -3 58 -23 26
-24 27 -50 9 l-27 -17 0 36 c0 28 -4 36 -17 36 -10 0 -28 3 -40 6 -18 5 -23 2
-23 -12z m62 -46 c3 -34 20 -41 60 -23 24 10 37 -24 15 -37 -28 -15 -21 -48
12 -59 40 -14 32 -49 -11 -49 -30 0 -30 -1 -24 -39 7 -46 -6 -61 -33 -37 -27
24 -48 19 -59 -13 -14 -39 -48 -33 -47 7 0 21 -5 28 -23 30 -13 2 -29 -1 -36
-7 -10 -8 -17 -7 -26 4 -10 13 -10 19 4 34 23 25 17 55 -12 59 -16 3 -22 10
-22 28 0 21 4 23 23 19 35 -9 54 18 36 51 -11 22 -11 27 1 34 21 13 27 12 34
-5 9 -24 45 -18 58 10 17 37 46 33 50 -7z m-392 -233 c28 9 25 -5 -6 -30 -34
-27 -35 -72 -3 -98 24 -19 67 -16 81 6 6 9 12 9 25 1 30 -19 22 -39 -14 -37
-24 2 -33 -2 -38 -17 -8 -26 -31 -26 -38 1 -5 18 -10 20 -37 14 -32 -7 -32 -7
-25 25 6 27 4 32 -14 37 -27 7 -27 29 0 36 18 5 21 11 16 35 -7 34 1 46 19 31
7 -6 22 -8 34 -4z m60 -96 c0 -22 -26 -32 -51 -19 -24 13 -25 56 -1 69 13 8
21 5 34 -12 10 -12 18 -29 18 -38z m190 -164 c0 -11 -11 -15 -40 -15 -29 0
-40 4 -40 15 0 11 11 15 40 15 29 0 40 -4 40 -15z m-2 -47 c-6 -17 -70 -17
-75 0 -3 8 8 12 37 12 29 0 40 -4 38 -12z"/>
<path d="M420 527 c-54 -27 -61 -99 -13 -137 36 -28 75 -25 107 6 37 38 36 84
-5 118 -34 29 -52 32 -89 13z m74 -28 c31 -25 34 -61 6 -89 -28 -28 -64 -25
-89 7 -24 30 -20 58 11 86 26 22 40 22 72 -4z"/>
<path d="M36 571 c-6 -9 47 -51 64 -51 19 0 10 15 -25 37 -19 13 -36 19 -39
14z"/>
<path d="M198 473 c-27 -45 -30 -117 -5 -154 9 -13 36 -38 59 -55 24 -16 47
-40 53 -52 11 -26 25 -29 25 -6 0 8 -14 27 -30 42 -78 69 -98 93 -103 122 -7
35 17 105 39 114 18 7 18 26 0 26 -8 0 -25 -17 -38 -37z"/>
<path d="M48 467 c-21 -5 -38 -14 -38 -19 0 -11 70 -2 83 12 15 14 -6 17 -45
7z"/>
<path d="M525 230 c3 -5 22 -10 41 -10 19 0 34 5 34 10 0 6 -18 10 -41 10 -24
0 -38 -4 -34 -10z"/>
<path d="M510 175 c0 -12 55 -53 63 -48 11 7 -33 53 -50 53 -7 0 -13 -2 -13
-5z"/>
<path d="M310 155 c0 -8 5 -15 10 -15 6 0 10 7 10 15 0 8 -4 15 -10 15 -5 0
-10 -7 -10 -15z"/>
<path d="M460 120 c0 -22 5 -40 10 -40 6 0 10 18 10 40 0 22 -4 40 -10 40 -5
0 -10 -18 -10 -40z"/>
</g>
</svg>
