<?xml version="1.0" standalone="no"?>
<!DOCTYPE svg PUBLIC "-//W3C//DTD SVG 20010904//EN"
 "http://www.w3.org/TR/2001/REC-SVG-20010904/DTD/svg10.dtd">
<svg version="1.0" xmlns="http://www.w3.org/2000/svg"
 width="64.000000pt" height="64.000000pt" viewBox="0 0 64.000000 64.000000"
 preserveAspectRatio="xMidYMid meet">

<g transform="translate(0.000000,64.000000) scale(0.100000,-0.100000)"
fill="#000000" stroke="none">
<path d="M245 621 c-108 -49 -141 -188 -66 -281 l31 -39 -40 -21 c-83 -42
-150 -138 -166 -237 -6 -41 -6 -43 20 -43 19 0 26 5 26 20 0 42 42 130 81 169
46 45 129 81 189 81 60 0 143 -36 189 -81 39 -39 81 -127 81 -169 0 -15 7 -20
26 -20 26 0 26 2 20 43 -16 99 -83 195 -166 237 l-40 21 31 39 c52 64 53 170
2 231 -54 64 -143 85 -218 50z m129 -45 c109 -46 100 -213 -14 -247 -89 -27
-170 33 -170 125 0 101 91 161 184 122z"/>
</g>
</svg>
